<svg width="24" height="24" viewBox="0 0 24 24" fill="none" xmlns="http://www.w3.org/2000/svg">
<path d="M20.0375 9.12925C20.9086 9.2008 21.5773 9.78275 21.711 10.6464C21.8573 11.591 22 13.1219 22 15.5C22 18.6602 21.7478 20.4547 21.5705 21.3261C21.4869 21.7364 21.1228 22 20.7041 22C19.968 22 18.5493 22 16 22C13.4507 22 12.032 22 11.2959 22C10.8772 22 10.513 21.7364 10.4295 21.3261C10.2521 20.4547 10 18.6602 10 15.5C10 13.1219 10.1427 11.591 10.289 10.6464C10.4227 9.78275 11.0914 9.2008 11.9625 9.12925C12.7909 9.06125 14.0722 9 16 9C17.9278 9 19.2091 9.06125 20.0375 9.12925Z" fill="#339C37"/>
<path d="M14.8744 2.23438C15.7555 2.33674 16.4048 2.96458 16.5417 3.84095C16.7524 5.1894 17 7.6908 17 12C17 17.2766 16.6287 20.0783 16.4086 21.2757C16.3288 21.7101 15.9489 22 15.5073 22C14.6278 22 12.8403 22 9.5 22C6.1597 22 4.37221 22 3.49266 22C3.05105 22 2.67118 21.7101 2.59135 21.2757C2.37124 20.0783 2 17.2766 2 12C2 7.6908 2.24759 5.1894 2.45826 3.84095C2.59518 2.96458 3.24446 2.33674 4.12554 2.23438C5.1394 2.11658 6.81985 2 9.5 2C12.1802 2 13.8606 2.11658 14.8744 2.23438Z" fill="#B6FFB9"/>
<path d="M5.5 7C5.5 6.4477 5.9477 6 6.5 6H12.5C13.0523 6 13.5 6.4477 13.5 7C13.5 7.5523 13.0523 8 12.5 8H6.5C5.9477 8 5.5 7.5523 5.5 7Z" fill="#339C37"/>
<path d="M5.5 12C5.5 11.4477 5.9477 11 6.5 11H12.5C13.0523 11 13.5 11.4477 13.5 12C13.5 12.5523 13.0523 13 12.5 13H6.5C5.9477 13 5.5 12.5523 5.5 12Z" fill="#339C37"/>
<path d="M6.78165 19.441C6.7485 18.5808 7.31495 17.853 8.1737 17.7927C8.53565 17.7672 8.9748 17.75 9.50025 17.75C10.0257 17.75 10.4649 17.7672 10.8269 17.7927C11.6856 17.853 12.2521 18.5808 12.2189 19.441C12.1876 20.2529 12.1251 21.2511 12.0003 22H7.00025C6.87545 21.2511 6.81295 20.2529 6.78165 19.441Z" fill="#339C37"/>
</svg>
