<svg width="24" height="24" viewBox="0 0 24 24" fill="none" xmlns="http://www.w3.org/2000/svg">
<path d="M22.0425 11.756C22.0425 6.07492 17.4371 1.46948 11.756 1.46948C6.07492 1.46948 1.46948 6.07492 1.46948 11.756C1.46948 17.4371 6.07492 22.0425 11.756 22.0425C17.4371 22.0425 22.0425 17.4371 22.0425 11.756Z" fill="#9F9F9F"/>
<path d="M7.60819 10.4786C7.05119 9.78553 7.43186 8.94837 8.32329 8.89719C8.82979 8.86804 9.47387 8.84292 10.2873 8.82886C10.2868 8.66958 10.2865 8.50241 10.2865 8.32711C10.2865 7.0175 10.3015 6.16476 10.3176 5.62643C10.3338 5.08535 10.5669 4.56567 11.0987 4.46453C11.2767 4.43067 11.4935 4.40845 11.756 4.40845C12.0185 4.40845 12.2353 4.43067 12.4133 4.46453C12.9452 4.56567 13.1782 5.08535 13.1944 5.62643C13.2105 6.16476 13.2255 7.0175 13.2255 8.32711C13.2255 8.50241 13.2253 8.66958 13.2247 8.82886C14.038 8.84292 14.6821 8.86804 15.1886 8.89714C16.0802 8.94837 16.4609 9.78573 15.9038 10.479C15.5687 10.8959 15.1316 11.4122 14.5669 12.0358C13.6707 13.0256 12.9888 13.6096 12.5212 13.9495C12.0524 14.2903 11.46 14.2903 10.9913 13.9495C10.5237 13.6095 9.8418 13.0255 8.94543 12.0358C8.38055 11.412 7.94331 10.8957 7.60819 10.4786Z" fill="#838383"/>
<path d="M6.8884 17.2465C6.94409 17.7347 7.36056 18.0119 7.85114 18.0407C8.5253 18.0803 9.72701 18.1238 11.7561 18.1238C13.7853 18.1238 14.987 18.0803 15.6611 18.0407C16.1517 18.0119 16.5681 17.7347 16.6239 17.2465C16.6425 17.0836 16.6545 16.8878 16.6545 16.6543C16.6545 16.4208 16.6425 16.225 16.6239 16.0621C16.5681 15.5739 16.1517 15.2967 15.6611 15.2679C14.987 15.2283 13.7853 15.1848 11.7561 15.1848C9.72701 15.1848 8.5253 15.2283 7.85114 15.2679C7.36056 15.2967 6.94409 15.5739 6.8884 16.0621C6.86979 16.225 6.85779 16.4208 6.85779 16.6543C6.85779 16.8878 6.86979 17.0836 6.8884 17.2465Z" fill="#838383"/>
</svg>
