<svg width="24" height="24" viewBox="0 0 24 24" fill="none" xmlns="http://www.w3.org/2000/svg">
<path fill-rule="evenodd" clip-rule="evenodd" d="M22.25 8.01675C22.25 5.38415 20.1158 3.25 17.4832 3.25C16.6462 3.25 15.907 3.79593 15.6608 4.59597L14.5563 8.1856C14.3243 8.93955 14.5572 9.75945 15.1509 10.2789L15.7205 10.7773C16.018 11.0376 16.1398 11.4512 15.9906 11.8173C15.2195 13.7085 13.7085 15.2195 11.8173 15.9906C11.4512 16.1398 11.0376 16.018 10.7773 15.7205L10.2789 15.1509C9.75945 14.5572 8.93955 14.3243 8.1856 14.5563L4.59597 15.6608C3.79594 15.907 3.25 16.6462 3.25 17.4832C3.25 20.1158 5.38415 22.25 8.01675 22.25H8.95C16.2954 22.25 22.25 16.2954 22.25 8.95V8.01675Z" fill="#B6FFB9"/>
<path fill-rule="evenodd" clip-rule="evenodd" d="M12.6721 7.342C12.6028 6.9696 12.2608 6.75 11.882 6.75H11.75C8.9886 6.75 6.75 8.9886 6.75 11.75V11.892C6.75 12.2655 6.9639 12.6042 7.33085 12.674C7.5659 12.7186 7.8723 12.7535 8.25 12.75C8.61585 12.7467 8.91475 12.7122 9.1468 12.67C9.5247 12.6012 9.75 12.2558 9.75 11.8716V11.75C9.75 10.6454 10.6454 9.75 11.75 9.75H11.882C12.2608 9.75 12.6028 9.5304 12.6721 9.158C12.7155 8.92445 12.75 8.62175 12.75 8.25C12.75 7.87825 12.7155 7.57555 12.6721 7.342Z" fill="#339C37"/>
<path fill-rule="evenodd" clip-rule="evenodd" d="M12.6721 2.342C12.6028 1.96961 12.2608 1.75 11.882 1.75H11.25C6.0033 1.75 1.75 6.0033 1.75 11.25V11.882C1.75 12.2608 1.96961 12.6028 2.342 12.6721C2.57556 12.7155 2.87822 12.75 3.25 12.75C3.62178 12.75 3.92444 12.7155 4.158 12.6721C4.53039 12.6028 4.75 12.2608 4.75 11.882V11.25C4.75 7.66015 7.66015 4.75 11.25 4.75H11.882C12.2608 4.75 12.6028 4.53039 12.6721 4.158C12.7155 3.92444 12.75 3.62178 12.75 3.25C12.75 2.87822 12.7155 2.57556 12.6721 2.342Z" fill="#339C37"/>
</svg>
