<svg width="49" height="49" viewBox="0 0 49 49" fill="none" xmlns="http://www.w3.org/2000/svg">
<path d="M45.0035 24.0018C45.0035 12.403 35.6007 3.00023 24.0019 3.00023C12.403 3.00023 3.00024 12.403 3.00024 24.0018C3.00024 35.6007 12.403 45.0035 24.0019 45.0035C35.6007 45.0035 45.0035 35.6007 45.0035 24.0018Z" fill="#339C37"/>
<path d="M15.5334 21.394C14.3962 19.9789 15.1734 18.2697 16.9934 18.1652C18.0275 18.1057 19.3425 18.0544 21.0033 18.0257C21.0022 17.7005 21.0017 17.3592 21.0017 17.0013C21.0017 14.3275 21.0323 12.5865 21.0652 11.4874C21.0982 10.3827 21.5741 9.32169 22.6599 9.1152C23.0233 9.04606 23.466 9.00069 24.0019 9.00069C24.5377 9.00069 24.9805 9.04606 25.3439 9.1152C26.4297 9.32169 26.9056 10.3827 26.9386 11.4874C26.9715 12.5865 27.0021 14.3275 27.0021 17.0013C27.0021 17.3592 27.0016 17.7005 27.0005 18.0257C28.6609 18.0544 29.9759 18.1057 31.0101 18.1651C32.8304 18.2697 33.6077 19.9793 32.4702 21.3947C31.7861 22.246 30.8937 23.3 29.7408 24.5733C27.9111 26.594 26.5188 27.7863 25.5641 28.4804C24.6069 29.1762 23.3976 29.1761 22.4405 28.4803C21.4859 27.7861 20.0937 26.5939 18.2636 24.5733C17.1103 23.2996 16.2176 22.2454 15.5334 21.394Z" fill="#B6FFB9"/>
<path d="M14.0637 35.2117C14.1774 36.2085 15.0277 36.7743 16.0293 36.8332C17.4057 36.9141 19.8592 37.0028 24.002 37.0028C28.1448 37.0028 30.5983 36.9141 31.9747 36.8332C32.9763 36.7743 33.8265 36.2085 33.9403 35.2117C33.9783 34.879 34.0028 34.4794 34.0028 34.0026C34.0028 33.5258 33.9783 33.1262 33.9403 32.7935C33.8265 31.7967 32.9763 31.2309 31.9747 31.172C30.5983 31.0911 28.1448 31.0024 24.002 31.0024C19.8592 31.0024 17.4057 31.0911 16.0293 31.172C15.0277 31.2309 14.1774 31.7967 14.0637 32.7935C14.0257 33.1262 14.0012 33.5258 14.0012 34.0026C14.0012 34.4794 14.0257 34.879 14.0637 35.2117Z" fill="#B6FFB9"/>
</svg>
