<svg width="32" height="32" viewBox="0 0 32 32" fill="none" xmlns="http://www.w3.org/2000/svg">
<g clip-path="url(#clip0_101_54)">
<circle cx="16" cy="16" r="16" fill="#252525"/>
<path d="M7.46165 13.1935V11.5455H15.2266V13.1935H12.332V21H10.3562V13.1935H7.46165ZM21.6342 14.2646C21.5973 13.8922 21.4388 13.6029 21.1587 13.3967C20.8787 13.1905 20.4986 13.0874 20.0185 13.0874C19.6922 13.0874 19.4168 13.1335 19.1921 13.2259C18.9674 13.3151 18.7951 13.4397 18.6751 13.5998C18.5581 13.7598 18.4996 13.9414 18.4996 14.1445C18.4935 14.3138 18.5289 14.4615 18.6058 14.5877C18.6858 14.7139 18.7951 14.8232 18.9336 14.9155C19.0721 15.0047 19.2321 15.0832 19.4137 15.1509C19.5953 15.2156 19.7892 15.271 19.9954 15.3171L20.8448 15.5202C21.2572 15.6126 21.6358 15.7357 21.9805 15.8896C22.3252 16.0434 22.6237 16.2327 22.8761 16.4574C23.1284 16.6821 23.3239 16.9467 23.4624 17.2514C23.6039 17.5561 23.6763 17.9054 23.6793 18.2994C23.6763 18.878 23.5285 19.3796 23.2362 19.8043C22.9469 20.226 22.5283 20.5537 21.9805 20.7876C21.4357 21.0185 20.7786 21.1339 20.0092 21.1339C19.246 21.1339 18.5812 21.0169 18.0149 20.783C17.4517 20.5491 17.0116 20.2029 16.6946 19.7443C16.3807 19.2827 16.216 18.7118 16.2006 18.0316H18.1349C18.1565 18.3486 18.2473 18.6133 18.4073 18.8256C18.5704 19.0349 18.7874 19.1934 19.0582 19.3011C19.3321 19.4058 19.6415 19.4581 19.9862 19.4581C20.3247 19.4581 20.6186 19.4089 20.8679 19.3104C21.1203 19.2119 21.3157 19.0749 21.4542 18.8995C21.5927 18.7241 21.6619 18.5225 21.6619 18.2947C21.6619 18.0824 21.5988 17.9039 21.4727 17.7592C21.3496 17.6146 21.168 17.4915 20.9279 17.3899C20.6909 17.2884 20.4001 17.196 20.0554 17.1129L19.0259 16.8544C18.2288 16.6605 17.5994 16.3574 17.1378 15.945C16.6761 15.5326 16.4469 14.977 16.4499 14.2784C16.4469 13.706 16.5992 13.2058 16.907 12.7781C17.2178 12.3503 17.6441 12.0163 18.1857 11.7763C18.7274 11.5362 19.3429 11.4162 20.0323 11.4162C20.734 11.4162 21.3465 11.5362 21.8697 11.7763C22.396 12.0163 22.8053 12.3503 23.0977 12.7781C23.39 13.2058 23.5408 13.7013 23.5501 14.2646H21.6342Z" fill="#CEFF9D"/>
</g>
<defs>
<clipPath id="clip0_101_54">
<rect width="32" height="32" fill="white"/>
</clipPath>
</defs>
</svg>
