<svg width="256" height="256" viewBox="0 0 256 256" fill="none" xmlns="http://www.w3.org/2000/svg">
<rect width="256" height="256" fill="#252525"/>
<path d="M78.7699 109.161V99.2727H125.359V109.161H107.992V156H96.1371V109.161H78.7699ZM163.805 115.587C163.584 113.353 162.633 111.617 160.952 110.38C159.272 109.143 156.991 108.524 154.111 108.524C152.153 108.524 150.501 108.801 149.153 109.355C147.805 109.891 146.771 110.638 146.05 111.599C145.349 112.559 144.998 113.648 144.998 114.867C144.961 115.883 145.173 116.769 145.635 117.526C146.115 118.283 146.771 118.939 147.602 119.493C148.433 120.028 149.393 120.499 150.482 120.906C151.572 121.293 152.735 121.626 153.972 121.903L159.069 123.121C161.543 123.675 163.815 124.414 165.883 125.337C167.951 126.261 169.742 127.396 171.256 128.744C172.771 130.092 173.943 131.68 174.774 133.509C175.624 135.337 176.058 137.433 176.076 139.796C176.058 143.268 175.171 146.278 173.417 148.826C171.681 151.356 169.17 153.322 165.883 154.726C162.614 156.111 158.672 156.803 154.055 156.803C149.476 156.803 145.487 156.102 142.089 154.698C138.71 153.295 136.07 151.217 134.168 148.466C132.284 145.696 131.296 142.271 131.204 138.19H142.81C142.939 140.092 143.484 141.68 144.444 142.954C145.423 144.21 146.724 145.161 148.349 145.807C149.993 146.435 151.849 146.749 153.917 146.749C155.948 146.749 157.712 146.453 159.207 145.862C160.722 145.271 161.894 144.45 162.725 143.397C163.556 142.344 163.972 141.135 163.972 139.768C163.972 138.494 163.593 137.423 162.836 136.555C162.097 135.687 161.008 134.949 159.567 134.339C158.146 133.73 156.401 133.176 154.332 132.678L148.156 131.126C143.373 129.963 139.597 128.144 136.827 125.67C134.057 123.195 132.681 119.862 132.7 115.67C132.681 112.236 133.595 109.235 135.442 106.668C137.307 104.102 139.864 102.098 143.114 100.658C146.364 99.2173 150.058 98.4972 154.194 98.4972C158.404 98.4972 162.079 99.2173 165.218 100.658C168.376 102.098 170.832 104.102 172.586 106.668C174.34 109.235 175.245 112.208 175.3 115.587H163.805Z" fill="#CEFF9D"/>
</svg>
